<svg width="43" height="40" viewBox="0 0 43 40" fill="none" xmlns="http://www.w3.org/2000/svg">
<path d="M7.44523 4.94274L39.89 7.91408C40.7164 7.98976 41.3243 8.72206 41.2466 9.54827L40.5257 17.2142C40.4621 17.8905 39.952 18.4396 39.2821 18.5528L12.675 23.0472M2.01001 1.49048L5.903 2.24314C6.48381 2.35543 6.94438 2.7986 7.07894 3.37467L13.3739 30.3236C13.5324 31.0023 14.1376 31.4824 14.8346 31.4824H40.7919" stroke="#51526C" stroke-width="1.5" stroke-linecap="round"/>
<path d="M15.0459 37.4018C15.0459 38.3542 14.1991 39.2169 13.0387 39.2169C11.8783 39.2169 11.0316 38.3542 11.0316 37.4018C11.0316 36.4495 11.8783 35.5867 13.0387 35.5867C14.1991 35.5867 15.0459 36.4495 15.0459 37.4018Z" fill="#51526C" stroke="#51526C" stroke-width="1.5"/>
<path d="M35.4057 37.4018C35.4057 38.3542 34.5589 39.2169 33.3985 39.2169C32.2381 39.2169 31.3914 38.3542 31.3914 37.4018C31.3914 36.4495 32.2381 35.5867 33.3985 35.5867C34.5589 35.5867 35.4057 36.4495 35.4057 37.4018Z" fill="#51526C" stroke="#51526C" stroke-width="1.5"/>
</svg>
