<svg width="44" height="40" viewBox="0 0 44 40" fill="none" xmlns="http://www.w3.org/2000/svg">
<path d="M22.3898 3.33331C12.5117 3.33331 4.47516 10.81 4.47516 20C4.47516 29.19 12.5117 36.6666 22.3898 36.6666C32.2679 36.6666 40.3044 29.19 40.3044 20C40.3044 10.81 32.2679 3.33331 22.3898 3.33331ZM23.2855 5.04998C31.4546 5.46998 38.0024 11.5883 38.4413 19.1933H23.2855V5.04998ZM22.3898 35C13.4988 35 6.26662 28.2716 6.26662 20C6.26662 12.01 13.0204 5.47831 21.4941 5.04165V20C21.4941 20.1463 21.5355 20.29 21.6141 20.4166L29.6542 33.3733C27.4046 34.4412 24.9153 34.9986 22.3898 35ZM31.1984 32.53L23.9573 20.86H38.4252C38.2814 23.1946 37.5531 25.4656 36.2984 27.4918C35.0437 29.518 33.2972 31.2433 31.1984 32.53Z" fill="#51526C"/>
</svg>
